<?xml version="1.0" encoding="UTF-8" standalone="no"?>
<!-- Created with Inkscape (http://www.inkscape.org/) -->

<svg
   xmlns:dc="http://purl.org/dc/elements/1.1/"
   xmlns:cc="http://creativecommons.org/ns#"
   xmlns:rdf="http://www.w3.org/1999/02/22-rdf-syntax-ns#"
   xmlns:svg="http://www.w3.org/2000/svg"
   xmlns="http://www.w3.org/2000/svg"
   xmlns:sodipodi="http://sodipodi.sourceforge.net/DTD/sodipodi-0.dtd"
   xmlns:inkscape="http://www.inkscape.org/namespaces/inkscape"
   width="54.631031mm"
   height="74.474075mm"
   viewBox="0 0 54.631031 74.474075"
   version="1.1"
   id="svg3724"
   inkscape:version="0.92.2 (unknown)"
   sodipodi:docname="cat.svg">
  <defs
     id="defs3718" />
  <sodipodi:namedview
     id="base"
     pagecolor="#ffffff"
     bordercolor="#666666"
     borderopacity="1.0"
     inkscape:pageopacity="0.0"
     inkscape:pageshadow="2"
     inkscape:zoom="2.8"
     inkscape:cx="231.81116"
     inkscape:cy="123.59555"
     inkscape:document-units="mm"
     inkscape:current-layer="layer1"
     showgrid="false"
     inkscape:window-width="2560"
     inkscape:window-height="1440"
     inkscape:window-x="0"
     inkscape:window-y="0"
     inkscape:window-maximized="1" />
  <metadata
     id="metadata3721">
    <rdf:RDF>
      <cc:Work
         rdf:about="">
        <dc:format>image/svg+xml</dc:format>
        <dc:type
           rdf:resource="http://purl.org/dc/dcmitype/StillImage" />
        <dc:title></dc:title>
      </cc:Work>
    </rdf:RDF>
  </metadata>
  <g
     inkscape:label="Layer 1"
     inkscape:groupmode="layer"
     id="layer1"
     transform="translate(0.85717956,-1.2272493)">
    <g
       transform="matrix(0.34980777,0,0,0.34980777,-85.099834,-41.869068)"
       id="g7"
       style="fill:#8393af;fill-opacity:0.94117647">
      <g
         id="g9"
         style="fill:#8393af;fill-opacity:0.94117647">
        <path
           class="st0"
           d="m 397,126.7 c 0,-2 -1.6,-3.5 -3.5,-3.5 -12.1,0 -19.6,8 -22.7,12.4 -9.4,-3.5 -21.7,-5.3 -37.6,-5.3 -16,0 -28.2,1.7 -37.6,5.3 -3.2,-4.3 -10.6,-12.4 -22.7,-12.4 -2,0 -3.5,1.6 -3.5,3.5 0,12.6 2.7,27.6 3.4,31.6 -2.4,6.4 -3.4,13.2 -3.4,21.6 0,26.1 22.8,63.9 63.9,63.9 41.1,0 63.7,-37.8 63.7,-63.9 0,-8.4 -1.1,-15.3 -3.4,-21.6 0.7,-4 3.4,-19.1 3.4,-31.6 z m -64,110 c -36.6,0 -56.8,-33.6 -56.8,-56.8 0,-7.9 1,-14.3 3.3,-20 0.2,-0.6 0.3,-1.3 0.2,-2 0,-0.2 -2.8,-14.5 -3.4,-27.4 6,1.2 10.2,5.1 12.5,7.9 -1.7,0.9 -3.3,2 -4.8,3.2 -1.6,1.2 -1.8,3.4 -0.6,5 1.2,1.6 3.4,1.8 5,0.6 8.8,-6.8 22.9,-9.9 44.7,-9.9 21.8,0 36,3.2 44.8,9.9 0.6,0.5 1.4,0.7 2.2,0.7 1,0 2.1,-0.5 2.8,-1.3 1.2,-1.6 0.9,-3.8 -0.6,-5 -1.5,-1.1 -3.1,-2.1 -4.8,-3.2 2.3,-2.8 6.5,-6.7 12.5,-7.9 -0.6,12.9 -3.4,27.2 -3.4,27.4 -0.2,0.6 -0.1,1.3 0.2,2 2.3,5.8 3.3,12 3.3,20 -0.2,23.2 -20.5,56.8 -57.1,56.8 z"
           id="path11"
           style="fill:#8393af;fill-opacity:0.94117647"
           inkscape:connector-curvature="0" />
        <path
           class="st0"
           d="m 384.7,308.2 c 2.2,-5.4 5.1,-15 5.1,-28.9 0,-23.3 -22.3,-34.6 -23.3,-35.1 -1.7,-0.9 -3.9,-0.2 -4.7,1.6 -0.9,1.7 -0.2,3.9 1.6,4.7 0.2,0.1 19.3,10 19.3,28.8 0,19.8 -6.5,29.9 -6.5,30 -0.7,1.1 -0.8,2.5 -0.2,3.6 0.6,1.2 1.8,1.9 3.2,1.9 10.6,0 10.6,5.4 10.6,7.1 0,4.7 -5.4,7.1 -10.6,7.1 h -3.5 c -2,0 -3.5,1.6 -3.5,3.5 0,2 1.6,3.5 3.5,3.5 h 3.5 c 10.3,0 17.7,-6 17.7,-14.2 0.1,-7.2 -4.4,-12.1 -12.2,-13.6 z"
           id="path13"
           style="fill:#8393af;fill-opacity:0.94117647"
           inkscape:connector-curvature="0" />
        <path
           class="st0"
           d="M 290.5,329 H 287 c -5.3,0 -10.6,-2.4 -10.6,-7.1 0,-1.7 0,-7.1 10.6,-7.1 1.3,0 2.5,-0.7 3.2,-1.9 0.6,-1.2 0.6,-2.5 -0.2,-3.6 -0.1,-0.1 -6.5,-10.3 -6.5,-30 0,-18.8 19.2,-28.7 19.3,-28.8 1.7,-0.9 2.4,-3 1.6,-4.7 -0.9,-1.7 -3,-2.4 -4.7,-1.6 -0.9,0.5 -23.3,11.9 -23.3,35.1 0,13.9 2.9,23.5 5.1,28.9 -7.8,1.5 -12.2,6.4 -12.2,13.7 0,8.2 7.5,14.2 17.7,14.2 h 3.5 c 2,0 3.5,-1.6 3.5,-3.5 0,-2 -1.6,-3.6 -3.5,-3.6 z"
           id="path15"
           style="fill:#8393af;fill-opacity:0.94117647"
           inkscape:connector-curvature="0" />
        <path
           class="st0"
           d="m 272.7,282.8 c 0,-2 -1.6,-3.5 -3.5,-3.5 0,0 -2.4,-0.2 -4.7,-2.8 -2.5,-3.1 -6.3,-11.3 -2.5,-32 1.8,-9.9 -2.9,-15.9 -8,-17.3 -4.5,-1.2 -10.5,0.9 -13,8.4 -0.6,1.9 0.4,3.9 2.2,4.5 1.9,0.6 3.9,-0.4 4.5,-2.2 0.9,-2.7 2.7,-4.2 4.5,-3.7 2.1,0.6 3.9,3.6 2.8,9.1 -3.2,18 -1.9,30.8 4,37.9 4.3,5.2 9.5,5.4 10.1,5.4 2,-0.3 3.6,-1.8 3.6,-3.8 z"
           id="path17"
           style="fill:#8393af;fill-opacity:0.94117647"
           inkscape:connector-curvature="0" />
        <path
           class="st0"
           d="m 354.4,307.9 c 0.1,-9.2 0.6,-35.2 3.5,-49.2 0.4,-1.9 -0.9,-3.8 -2.8,-4.2 -2,-0.4 -3.8,0.9 -4.2,2.8 -3,14.7 -3.5,40.9 -3.6,50.4 v 0 c -2,0 -3.5,1.6 -3.5,3.5 0,2 1.6,3.5 3.5,3.5 h 3.5 c 10.6,0 10.6,5.4 10.6,7.1 0,4.7 -5.4,7.1 -10.6,7.1 h -3.5 c -5.8,0 -10.6,-4.8 -10.6,-10.6 v -63.9 c 0,-2 -1.6,-3.5 -3.5,-3.5 -2,0 -3.5,1.6 -3.5,3.5 v 63.9 c 0,5.8 -4.8,10.6 -10.6,10.6 h -3.5 c -5.3,0 -10.6,-2.4 -10.6,-7.1 0,-1.7 0,-7.1 10.6,-7.1 h 3.5 c 2,0 3.5,-1.6 3.5,-3.5 0,-2 -1.6,-3.5 -3.5,-3.5 v 0 c -0.1,-9.5 -0.6,-35.6 -3.6,-50.4 -0.4,-1.9 -2.2,-3.2 -4.2,-2.8 -1.9,0.4 -3.2,2.3 -2.8,4.2 2.8,14 3.4,40 3.5,49.2 -8.9,1 -14.2,6.1 -14.2,14 0,8.2 7.5,14.2 17.7,14.2 h 3.5 c 5.8,0 11,-2.8 14.2,-7.1 3.2,4.3 8.4,7.1 14.2,7.1 h 3.5 c 10.3,0 17.7,-6 17.7,-14.2 0,-8 -5.3,-13 -14.2,-14 z"
           id="path19"
           style="fill:#8393af;fill-opacity:0.94117647"
           inkscape:connector-curvature="0" />
        <path
           class="st0"
           d="m 356.2,169.2 c -2.9,0 -5.4,2.4 -5.4,5.4 0,3 2.4,5.4 5.4,5.4 2.9,0 5.4,-2.4 5.4,-5.4 -0.1,-3 -2.5,-5.4 -5.4,-5.4 z"
           id="path21"
           style="fill:#8393af;fill-opacity:0.94117647"
           inkscape:connector-curvature="0" />
        <path
           class="st0"
           d="m 315.3,174.5 c 0,-2.9 -2.4,-5.4 -5.4,-5.4 -3,0 -5.4,2.4 -5.4,5.4 0,3 2.4,5.4 5.4,5.4 3,0 5.4,-2.4 5.4,-5.4 z"
           id="path23"
           style="fill:#8393af;fill-opacity:0.94117647"
           inkscape:connector-curvature="0" />
        <path
           class="st0"
           d="m 356,215.8 c -1.7,-0.9 -3.9,-0.2 -4.8,1.5 -0.6,1.2 -3,1.6 -3.9,1.7 -4.3,0 -8.8,-3.8 -10.2,-8.1 6.2,-3.1 10.2,-12.5 10.2,-16.8 0,-7.1 -7.9,-7.1 -14.2,-7.1 -6.3,0 -14.2,0 -14.2,7.1 0,4.3 3.9,13.7 10.2,16.8 -1.4,4.3 -5.8,8.1 -10.2,8.1 -0.5,0 -3.2,-0.3 -4,-1.7 -0.9,-1.7 -3.1,-2.4 -4.8,-1.4 -1.7,0.9 -2.4,3.1 -1.4,4.8 2.8,5.2 9.5,5.4 10.3,5.4 5.5,0 10.9,-3.2 14.2,-7.6 3.4,4.5 8.7,7.6 14.2,7.6 0.8,0 7.5,-0.2 10.3,-5.4 0.7,-1.9 0,-4.1 -1.7,-4.9 z m -23,-11.1 c -2.9,0 -6.7,-7.1 -7.1,-10.3 1.3,-0.4 4.7,-0.4 7.1,-0.4 2.4,0 5.8,0 7.1,0.4 -0.3,3.2 -4.1,10.3 -7.1,10.3 z"
           id="path25"
           style="fill:#8393af;fill-opacity:0.94117647"
           inkscape:connector-curvature="0" />
      </g>
    </g>
  </g>
</svg>
