<?xml version="1.0" encoding="UTF-8" standalone="no"?>
<svg
   xmlns:dc="http://purl.org/dc/elements/1.1/"
   xmlns:cc="http://creativecommons.org/ns#"
   xmlns:rdf="http://www.w3.org/1999/02/22-rdf-syntax-ns#"
   xmlns:svg="http://www.w3.org/2000/svg"
   xmlns="http://www.w3.org/2000/svg"
   xmlns:sodipodi="http://sodipodi.sourceforge.net/DTD/sodipodi-0.dtd"
   xmlns:inkscape="http://www.inkscape.org/namespaces/inkscape"
   version="1.1"
   x="0px"
   y="0px"
   viewBox="-50 150 40 40"
   enable-background="new -50 150 100 100"
   xml:space="preserve"
   id="svg3742"
   sodipodi:docname="cross.svg"
   width="60"
   height="60"
   inkscape:version="0.92.2 5c3e80d, 2017-08-06"><metadata
     id="metadata3748"><rdf:RDF><cc:Work
         rdf:about=""><dc:format>image/svg+xml</dc:format><dc:type
           rdf:resource="http://purl.org/dc/dcmitype/StillImage" /><dc:title></dc:title></cc:Work></rdf:RDF></metadata><defs
     id="defs3746" /><sodipodi:namedview
     pagecolor="#ffffff"
     bordercolor="#666666"
     borderopacity="1"
     objecttolerance="10"
     gridtolerance="10"
     guidetolerance="10"
     inkscape:pageopacity="0"
     inkscape:pageshadow="2"
     inkscape:window-width="640"
     inkscape:window-height="480"
     id="namedview3744"
     showgrid="false"
     scale-x="0.4"
     inkscape:zoom="2.36"
     inkscape:cx="50"
     inkscape:cy="50"
     inkscape:window-x="0"
     inkscape:window-y="0"
     inkscape:window-maximized="0"
     inkscape:current-layer="svg3742"
     inkscape:pagecheckerboard="true" /><g
     id="g3740"
     transform="translate(-51.525424,-29.830509)"
     style="fill:#ffffff"><path
       d="m 35,191.4 -8.6,8.6 8.6,8.6 c 1.4,1.6 1.4,3.1 -0.1,4.4 -1.5,1.4 -3,1.4 -4.3,0 L 22,204.4 13.4,213 c -1.6,1.4 -3.1,1.4 -4.4,0 -1.3,-1.4 -1.4,-2.8 0,-4.4 L 17.6,200 9,191.4 c -1.4,-1.6 -1.4,-3.1 0,-4.4 1.4,-1.3 2.8,-1.4 4.4,0 l 8.6,8.6 8.6,-8.6 c 1.4,-1.4 2.8,-1.4 4.3,0 1.6,1.3 1.6,2.8 0.1,4.4 z"
       id="path3738"
       inkscape:connector-curvature="0"
       style="fill:#ffffff" /></g></svg>
