<?xml version="1.0" encoding="UTF-8" standalone="no"?>
<svg
   xmlns:dc="http://purl.org/dc/elements/1.1/"
   xmlns:cc="http://creativecommons.org/ns#"
   xmlns:rdf="http://www.w3.org/1999/02/22-rdf-syntax-ns#"
   xmlns:svg="http://www.w3.org/2000/svg"
   xmlns="http://www.w3.org/2000/svg"
   xmlns:sodipodi="http://sodipodi.sourceforge.net/DTD/sodipodi-0.dtd"
   xmlns:inkscape="http://www.inkscape.org/namespaces/inkscape"
   version="1.1"
   x="0px"
   y="0px"
   viewBox="0 0 60 60"
   enable-background="new 0 0 100 100"
   xml:space="preserve"
   id="svg14"
   sodipodi:docname="female.svg"
   inkscape:version="0.92.2 5c3e80d, 2017-08-06"
   width="70"
   height="70"><metadata
     id="metadata20"><rdf:RDF><cc:Work
         rdf:about=""><dc:format>image/svg+xml</dc:format><dc:type
           rdf:resource="http://purl.org/dc/dcmitype/StillImage" /><dc:title></dc:title></cc:Work></rdf:RDF></metadata><defs
     id="defs18" /><sodipodi:namedview
     pagecolor="#ffffff"
     bordercolor="#666666"
     borderopacity="1"
     objecttolerance="10"
     gridtolerance="10"
     guidetolerance="10"
     inkscape:pageopacity="0"
     inkscape:pageshadow="2"
     inkscape:window-width="1147"
     inkscape:window-height="701"
     id="namedview16"
     showgrid="false"
     inkscape:zoom="5.42"
     inkscape:cx="64.760148"
     inkscape:cy="64.760148"
     inkscape:window-x="46"
     inkscape:window-y="0"
     inkscape:window-maximized="0"
     inkscape:current-layer="svg14"
     scale-x="0.6"
     inkscape:pagecheckerboard="true" /><path
     d="m 29.945801,0.49529151 c -10.958,0 -19.872,8.91399999 -19.872,19.87200049 0,10.001 7.433,18.277 17.06,19.651 v 4.75 h -5.498 c -1.554,0 -2.813,1.259 -2.813,2.813 0,1.555 1.259,2.813 2.813,2.813 h 5.498 v 4.603 c 0,1.555 1.259,2.813 2.813,2.813 1.554,0 2.813,-1.259 2.813,-2.813 v -4.603 h 5.501 c 1.554,0 2.813,-1.259 2.813,-2.813 0,-1.554 -1.259,-2.813 -2.813,-2.813 h -5.501 v -4.75 c 9.629,-1.373 17.063,-9.649 17.063,-19.651 -10e-4,-10.9580005 -8.918,-19.87200049 -19.877,-19.87200049 z m 0,34.12100049 c -7.855,0 -14.247,-6.392 -14.247,-14.249 0,-7.856 6.392,-14.2480005 14.247,-14.2480005 7.858,0 14.251,6.3920005 14.251,14.2480005 0,7.857 -6.393,14.249 -14.251,14.249 z"
     id="path10"
     inkscape:connector-curvature="0"
     style="fill:#ffffff" /><g
     inkscape:groupmode="layer"
     id="layer1"
     inkscape:label="male" /></svg>
