<?xml version="1.0" encoding="UTF-8" standalone="no"?>
<svg
   xmlns:dc="http://purl.org/dc/elements/1.1/"
   xmlns:cc="http://creativecommons.org/ns#"
   xmlns:rdf="http://www.w3.org/1999/02/22-rdf-syntax-ns#"
   xmlns:svg="http://www.w3.org/2000/svg"
   xmlns="http://www.w3.org/2000/svg"
   xmlns:sodipodi="http://sodipodi.sourceforge.net/DTD/sodipodi-0.dtd"
   xmlns:inkscape="http://www.inkscape.org/namespaces/inkscape"
   version="1.1"
   x="0px"
   y="0px"
   viewBox="0 0 50 50"
   enable-background="new 0 0 100 100"
   xml:space="preserve"
   id="svg3997"
   sodipodi:docname="male.svg"
   width="60"
   height="60"
   inkscape:version="0.92.2 5c3e80d, 2017-08-06"><metadata
     id="metadata4003"><rdf:RDF><cc:Work
         rdf:about=""><dc:format>image/svg+xml</dc:format><dc:type
           rdf:resource="http://purl.org/dc/dcmitype/StillImage" /><dc:title></dc:title></cc:Work></rdf:RDF></metadata><defs
     id="defs4001"><inkscape:perspective
       sodipodi:type="inkscape:persp3d"
       inkscape:vp_x="0 : 25 : 1"
       inkscape:vp_y="0 : 1000 : 0"
       inkscape:vp_z="50 : 25 : 1"
       inkscape:persp3d-origin="25 : 16.666667 : 1"
       id="perspective4024" /></defs><sodipodi:namedview
     pagecolor="#ffffff"
     bordercolor="#666666"
     borderopacity="1"
     objecttolerance="10"
     gridtolerance="10"
     guidetolerance="10"
     inkscape:pageopacity="0"
     inkscape:pageshadow="2"
     inkscape:window-width="640"
     inkscape:window-height="480"
     id="namedview3999"
     showgrid="false"
     scale-x="0.5"
     inkscape:zoom="2.36"
     inkscape:cx="50"
     inkscape:cy="50"
     inkscape:window-x="211"
     inkscape:window-y="110"
     inkscape:window-maximized="0"
     inkscape:current-layer="svg3997"
     inkscape:pagecheckerboard="true" /><path
     d="m 46.29817,1.0123558 -12.997,-10e-4 c -1.553,0 -2.813,1.2589999 -2.813,2.813 0,1.554 1.26,2.813 2.813,2.813 h 6.207 l -6.754,6.7520002 c -3.42,-2.575 -7.551,-3.9880002 -11.908,-3.9880002 -5.31,0 -10.299,2.0670002 -14.0530004,5.8200002 -7.748,7.75 -7.747,20.359 0,28.107 3.7540004,3.751 8.7460004,5.818 14.0530004,5.818 5.31,0 10.3,-2.067 14.053,-5.82 7.07,-7.07 7.669,-18.178 1.832,-25.958 l 6.754,-6.754 v 6.205 c 0,1.553 1.259,2.813 2.813,2.813 1.555,0 2.813,-1.261 2.813,-2.814 V 3.8243558 c -0.001,-1.5530001 -1.26,-2.812 -2.813,-2.812 z m -15.375,38.3370002 c -2.69,2.69 -6.269,4.173 -10.074,4.173 -3.807,0 -7.385,-1.481 -10.076,-4.173 -5.5550004,-5.555 -5.5550004,-14.595 0,-20.151 2.691,-2.691 6.27,-4.173 10.074,-4.173 3.809,0 7.386,1.482 10.076,4.173 5.554,5.557 5.554,14.596 0,20.151 z"
     id="path3995"
     inkscape:connector-curvature="0"
     style="fill:#ffffff" /></svg>
