<svg xmlns="http://www.w3.org/2000/svg" xmlns:xlink="http://www.w3.org/1999/xlink" version="1.1" x="0px" y="0px" viewBox="-50 150 100 100" enable-background="new -50 150 100 100" xml:space="preserve"><g><path d="M-29.2,213.2l-10-10.4c-1.4-1.5-1.4-2.8,0-4.2c1.4-1.4,2.7-1.4,4.2,0l8.2,8.1l19.8-19.8c1.4-1.4,2.7-1.4,4.1,0   c1.4,1.4,1.4,2.7,0.1,4.2l0,0l-22.1,22.1 M-25,213.2c-1.5,1.4-2.8,1.4-4.2,0"></path></g><g><path d="M35,191.4l-8.6,8.6l8.6,8.6c1.4,1.6,1.4,3.1-0.1,4.4c-1.5,1.4-3,1.4-4.3,0l-8.6-8.6l-8.6,8.6c-1.6,1.4-3.1,1.4-4.4,0   s-1.4-2.8,0-4.4l8.6-8.6l-8.6-8.6c-1.4-1.6-1.4-3.1,0-4.4s2.8-1.4,4.4,0l8.6,8.6l8.6-8.6c1.4-1.4,2.8-1.4,4.3,0   C36.5,188.3,36.5,189.8,35,191.4L35,191.4z"></path></g></svg>