<svg xmlns="http://www.w3.org/2000/svg" xmlns:xlink="http://www.w3.org/1999/xlink" version="1.1" x="0px" y="0px" viewBox="0 0 100 100" enable-background="new 0 0 100 100" xml:space="preserve"><path d="M24.872,21.344C13.914,21.344,5,30.258,5,41.216c0,10.001,7.433,18.277,17.06,19.651v4.75h-5.498  c-1.554,0-2.813,1.259-2.813,2.813c0,1.555,1.259,2.813,2.813,2.813h5.498v4.603c0,1.555,1.259,2.813,2.813,2.813  c1.554,0,2.813-1.259,2.813-2.813v-4.603h5.501c1.554,0,2.813-1.259,2.813-2.813c0-1.554-1.259-2.813-2.813-2.813h-5.501v-4.75  c9.629-1.373,17.063-9.649,17.063-19.651C44.748,30.258,35.831,21.344,24.872,21.344z M24.872,55.465  c-7.855,0-14.247-6.392-14.247-14.249c0-7.856,6.392-14.248,14.247-14.248c7.858,0,14.251,6.392,14.251,14.248  C39.123,49.073,32.73,55.465,24.872,55.465z"></path><path d="M92.188,23.131L79.191,23.13c-1.553,0-2.813,1.259-2.813,2.813c0,1.554,1.26,2.813,2.813,2.813h6.207l-6.754,6.752  c-3.42-2.575-7.551-3.988-11.908-3.988c-5.31,0-10.299,2.067-14.053,5.82c-7.748,7.75-7.747,20.359,0,28.107  c3.754,3.751,8.746,5.818,14.053,5.818c5.31,0,10.3-2.067,14.053-5.82c7.07-7.07,7.669-18.178,1.832-25.958l6.754-6.754v6.205  c0,1.553,1.259,2.813,2.813,2.813c1.555,0,2.813-1.261,2.813-2.814V25.943C95,24.39,93.741,23.131,92.188,23.131z M76.813,61.468  c-2.69,2.69-6.269,4.173-10.074,4.173c-3.807,0-7.385-1.481-10.076-4.173c-5.555-5.555-5.555-14.595,0-20.151  c2.691-2.691,6.27-4.173,10.074-4.173c3.809,0,7.386,1.482,10.076,4.173C82.367,46.874,82.367,55.913,76.813,61.468z"></path></svg>