<?xml version="1.0" encoding="UTF-8" standalone="no"?>
<svg
   xmlns:dc="http://purl.org/dc/elements/1.1/"
   xmlns:cc="http://creativecommons.org/ns#"
   xmlns:rdf="http://www.w3.org/1999/02/22-rdf-syntax-ns#"
   xmlns:svg="http://www.w3.org/2000/svg"
   xmlns="http://www.w3.org/2000/svg"
   viewBox="0 0 573.18665 302.952"
   height="302.952"
   width="573.18665"
   xml:space="preserve"
   id="svg2"
   version="1.1"><metadata
     id="metadata8"><rdf:RDF><cc:Work
         rdf:about=""><dc:format>image/svg+xml</dc:format><dc:type
           rdf:resource="http://purl.org/dc/dcmitype/StillImage" /><dc:title></dc:title></cc:Work></rdf:RDF></metadata><defs
     id="defs6"><clipPath
       id="clipPath18"
       clipPathUnits="userSpaceOnUse"><path
         id="path16"
         d="M 0,227.214 H 429.89 V 0 H 0 Z" /></clipPath></defs><g
     transform="matrix(1.3333333,0,0,-1.3333333,0,302.952)"
     id="g10"><g
       id="g12"><g
         clip-path="url(#clipPath18)"
         id="g14"><g
           transform="translate(326.4484,131.0988)"
           id="g20"><path
             id="path22"
             style="fill:#fff;fill-opacity:1;fill-rule:nonzero;stroke:none"
             d="m 0,0 c -1.879,0.001 -3.401,1.524 -3.401,3.403 l 0.006,15.035 h -1.254 c -7.779,0 -10.671,-1.284 -10.671,-8.369 V -6.51 c -10e-4,-0.035 -0.006,-0.07 -0.006,-0.105 v -3.634 c -0.002,-0.126 -0.01,-0.243 -0.01,-0.373 v -23.164 c 0,-2.83 -0.545,-5.083 -1.67,-6.833 -2.12,-3.267 -6.319,-4.753 -13.037,-4.762 -6.716,0.009 -10.914,1.493 -13.035,4.758 -1.127,1.751 -1.673,4.005 -1.673,6.837 v 23.164 c 0,0.13 -0.008,0.247 -0.01,0.373 v 3.634 c 0,0.035 -0.004,0.07 -0.005,0.105 v 16.579 c 0,7.085 -2.893,8.369 -10.671,8.369 h -2.449 c -7.778,0 -10.671,-1.284 -10.671,-8.369 v -16.684 -17.553 -9.618 c 0,-7.055 1.591,-13.029 4.666,-17.843 5.937,-9.331 17.438,-14.301 33.788,-14.301 0.02,0 0.04,0.001 0.06,0.001 0.02,0 0.04,-0.001 0.06,-0.001 16.35,0 27.851,4.97 33.788,14.301 3.075,4.814 4.665,10.788 4.665,17.843 v 9.618 17.553 6.612 z" /></g><g
           transform="translate(362.4083,155.3251)"
           id="g24"><path
             id="path26"
             style="fill:#fff;fill-opacity:1;fill-rule:nonzero;stroke:none"
             d="m 0,0 -12.794,0.004 c -1.395,0.001 -2.526,1.132 -2.526,2.528 l 0.005,12.952 c 0,1.396 1.132,2.526 2.527,2.526 L 0.006,18.006 C 1.402,18.005 2.532,16.873 2.532,15.478 L 2.528,2.526 C 2.527,1.13 1.395,0 0,0" /></g><g
           transform="translate(345.36,173.3337)"
           id="g28"><path
             id="path30"
             style="fill:#fff;fill-opacity:1;fill-rule:nonzero;stroke:none"
             d="m 0,0 -8.689,0.003 c -0.948,0 -1.716,0.769 -1.716,1.717 l 0.003,8.797 c 0,0.947 0.769,1.715 1.717,1.715 l 8.689,-0.003 c 0.948,0 1.716,-0.769 1.716,-1.717 L 1.717,1.715 C 1.716,0.768 0.948,0 0,0" /></g><g
           transform="translate(125.3849,122.8537)"
           id="g32"><path
             id="path34"
             style="fill:#fff;fill-opacity:1;fill-rule:nonzero;stroke:none"
             d="m 0,0 c 0,-10.407 -2.657,-16.046 -16.675,-16.046 h -21.578 v 26.858 c 0,3.724 1.385,5.109 5.109,5.109 h 16.469 C -6.114,15.921 0,13.316 0,0 m -16.675,26.698 h -18.607 c -9.943,0 -14.377,-4.434 -14.377,-14.377 v -63.866 c 0,-3.841 1.233,-5.074 5.074,-5.074 h 1.258 c 3.841,0 5.074,1.233 5.074,5.074 v 24.847 h 21.578 c 19.158,0 28.081,8.484 28.081,26.698 0,18.215 -8.923,26.698 -28.081,26.698" /></g><g
           transform="translate(176.9273,94.9397)"
           id="g36"><path
             id="path38"
             style="fill:#fff;fill-opacity:1;fill-rule:nonzero;stroke:none"
             d="m 0,0 v -8.755 c 0,-7.137 -2.646,-11.269 -16.172,-11.269 -8.937,0 -13.281,3.234 -13.281,9.886 0,7.296 4.358,10.138 15.544,10.138 z m -16.172,36.298 c -7.375,0 -11.995,-0.925 -13.748,-1.275 -3.104,-0.675 -4.401,-1.527 -4.401,-5.056 v -1.006 c 0,-1.383 0.204,-2.34 0.644,-3.015 0.511,-0.785 1.335,-1.183 2.448,-1.183 0.544,0 1.173,0.091 1.925,0.279 1.772,0.443 7.438,1.359 13.635,1.359 C -4.54,26.401 0,23.318 0,15.76 V 9.017 h -14.035 c -18.043,0 -26.446,-6.086 -26.446,-19.155 0,-12.676 8.677,-19.657 24.435,-19.657 18.724,0 27.074,6.373 27.074,20.663 V 15.76 c 0,13.82 -8.897,20.538 -27.2,20.538" /></g><g
           transform="translate(249.669,128.2612)"
           id="g40"><path
             id="path42"
             style="fill:#fff;fill-opacity:1;fill-rule:nonzero;stroke:none"
             d="m 0,0 c -0.794,0.998 -2.298,1.136 -3.805,1.136 h -1.131 c -3.754,0 -5.227,-1.159 -6.058,-4.761 l -10.434,-43.371 c -1.303,-5.329 -3.131,-6.304 -6.263,-6.304 -3.834,0 -5.369,0.915 -6.898,6.325 l -11.817,43.371 c -0.978,3.632 -2.421,4.74 -6.178,4.74 h -1.006 c -1.516,0 -3.025,-0.139 -3.8,-1.15 -0.776,-1.013 -0.514,-2.524 -0.114,-4.009 l 11.943,-43.746 c 2.24,-8.372 4.903,-15.302 14.853,-15.302 1.858,0 3.575,0.257 5.004,0.74 -3.017,-9.491 -6.088,-13.678 -15.141,-14.607 -1.837,-0.154 -3.031,-0.416 -3.697,-1.308 -0.69,-0.925 -0.533,-2.25 -0.286,-3.434 l 0.249,-1.121 c 0.54,-2.594 1.461,-4.202 4.373,-4.202 0.306,0 0.635,0.016 0.988,0.046 13.518,0.885 20.761,8.163 25,25.12 L 0.243,-3.992 C 0.586,-2.508 0.793,-0.997 0,0" /></g><g
           transform="translate(343.6822,155.335)"
           id="g44"><path
             id="path46"
             style="fill:#fff;fill-opacity:1;fill-rule:nonzero;stroke:none"
             d="m 0,0 -17.225,0.006 c -1.879,0.001 -3.403,-1.522 -3.403,-3.401 l -0.001,-2.403 h 1.195 c 7.778,0 10.671,-1.284 10.671,-8.369 v -10.072 l 8.755,-0.003 c 1.878,-10e-4 3.402,1.522 3.403,3.4 L 3.401,-3.403 C 3.401,-1.524 1.879,-0.001 0,0" /></g></g></g></g></svg>
